# xmcd
#
# Track frame offsets:
#	150
#	10959
#	25208
#	41109
#	51040
#	65536
#	80053
#	94067
#	108985
#	120652
#	133053
#	145992
#	157483
#	167203
#	180782
#	189721
#	202638
#	212815
#	221847
#	235127
#
# Disc length: 3325 seconds
#
# Revision: 0
# Processed by: cddbd v1.5.2PL0 Copyright (c) Steve Scherf et al.
# Submitted via: EasyCDDAExtractor 12.0.1.1
#
DISCID=250cfb14
DTITLE=Charley Pride - Amazing Love/Country Feelin'/Pride Of America/Charley
DYEAR=2016
DGENRE=country
TTITLE0=Comin' Down With Love
TTITLE1=If She Just Helps Me Get Over You
TTITLE2=I'm Only Losin' Everything I Threw Away
TTITLE3=Footprints In The Sands Of Time
TTITLE4=Amazing Love
TTITLE5=Blue Ridge Mountains Turnin' Green
TTITLE6=I've Just Found Another Reason For Loving You
TTITLE7=Old Photographs
TTITLE8=I'm Glad It Was You
TTITLE9=Mr. Joe Henry's Happy Hand Clappin' Open Air Rhythm Band
TTITLE10=Which Way Do We Go
TTITLE11=We Could
TTITLE12=It Amazes Me
TTITLE13=All His Children
TTITLE14=Streets Of Gold
TTITLE15=I Don't See How I Can Love You Anymore
TTITLE16=Singin' A Song About Love
TTITLE17=Man I Used To Be
TTITLE18=Let My Love In
TTITLE19=Love Put A Song In My Heart
EXTD=
EXTT0=
EXTT1=
EXTT2=
EXTT3=
EXTT4=
EXTT5=
EXTT6=
EXTT7=
EXTT8=
EXTT9=
EXTT10=
EXTT11=
EXTT12=
EXTT13=
EXTT14=
EXTT15=
EXTT16=
EXTT17=
EXTT18=
EXTT19=
PLAYORDER=
